Coordinates
version=1
nRows=22
nColumns=24
inDegrees=yes

Units are S.I. units (second, meters, Newtons, ...)
Angles are in degrees.

endheader
time	pelvis_tilt	pelvis_list	pelvis_rotation	pelvis_tx	pelvis_ty	pelvis_tz	hip_flexion_r	hip_adduction_r	hip_rotation_r	knee_angle_r	ankle_angle_r	subtalar_angle_r	mtp_angle_r	hip_flexion_l	hip_adduction_l	hip_rotation_l	knee_angle_l	ankle_angle_l	subtalar_angle_l	mtp_angle_l	lumbar_extension	lumbar_bending	lumbar_rotation
      4.42000000	      9.66581327	     12.57904779	     19.17665377	     -0.14111052	      0.73657555	     -0.24761475	     13.65318073	    -16.54411816	    -15.16903705	    -12.65678799	     17.67652664	     15.52227896	      0.00000000	    -26.59174374	      5.68515986	     11.08455840	    -21.21995890	     30.42803235	     15.21586835	      0.00000000	    -32.60833200	     -3.99743952	    -15.70249083
      4.42500000	      9.83207188	     12.19449849	     19.04992789	     -0.13315000	      0.73648522	     -0.24699728	     13.60203954	    -15.83763598	    -14.39625616	    -13.51718857	     16.89777299	     14.47346841	      0.00000000	    -26.35778069	      5.27204824	     11.08851454	    -22.91537068	     29.70026278	     14.72276800	      0.00000000	    -32.46749019	     -3.75293367	    -15.26324954
      4.43000000	      9.99031046	     11.75995999	     18.87179071	     -0.12520104	      0.73642421	     -0.24634432	     13.60084613	    -15.06316359	    -13.51870232	    -14.45386324	     16.11217453	     13.33345946	      0.00000000	    -26.01772373	      4.86713828	     11.00694256	    -24.74707518	     28.85201005	     14.22049400	      0.00000000	    -32.30316892	     -3.47967716	    -14.74889010
      4.43500000	     10.14356855	     11.30425033	     18.68231484	     -0.11729550	      0.73641106	     -0.24564803	     13.62721066	    -14.25930069	    -12.61218640	    -15.46583507	     15.37756442	     12.16714024	      0.00000000	    -25.57828240	      4.46993048	     10.87172041	    -26.71197448	     27.83126101	     13.68829943	      0.00000000	    -32.14253155	     -3.19397912	    -14.24335450
      4.44000000	     10.28317761	     10.81108406	     18.48982007	     -0.10941607	      0.73643850	     -0.24494621	     13.66886492	    -13.41178777	    -11.70927701	    -16.50065892	     14.73348641	     11.00848814	      0.00000000	    -25.03234492	      4.06753483	     10.70931318	    -28.79238915	     26.62896915	     13.12014676	      0.00000000	    -31.96452791	     -2.87467401	    -13.71693783
      4.44500000	     10.42454258	     10.27595784	     18.29987287	     -0.10160069	      0.73649715	     -0.24425443	     13.71460539	    -12.51966237	    -10.84973105	    -17.56142443	     14.19425145	      9.92335942	      0.00000000	    -24.39206823	      3.64986735	     10.52384175	    -30.98372581	     25.31984391	     12.45866128	      0.00000000	    -31.79014342	     -2.49924046	    -13.20104791
      4.45000000	     10.55487145	      9.70787050	     18.12276013	     -0.09385026	      0.73658508	     -0.24356246	     13.76011385	    -11.59331701	    -10.04034542	    -18.61320659	     13.77886594	      8.90138212	      0.00000000	    -23.64861741	      3.21506783	     10.31301907	    -33.26640481	     23.87419263	     11.75002572	      0.00000000	    -31.61404186	     -2.08310927	    -12.69871617
      4.45500000	     10.67351588	      9.10476953	     17.96537808	     -0.08616841	      0.73670041	     -0.24288938	     13.79608469	    -10.63432161	     -9.30288757	    -19.63379430	     13.49204793	      7.96847807	      0.00000000	    -22.80460535	      2.75659815	     10.08959969	    -35.62164805	     22.31416595	     10.99681019	      0.00000000	    -31.43023320	     -1.62002274	    -12.21553697
      4.46000000	     10.77891727	      8.47333955	     17.83742321	     -0.07856797	      0.73683977	     -0.24223724	     13.81273434	     -9.65363233	     -8.66057078	    -20.60004822	     13.34459489	      7.13928580	      0.00000000	    -21.86639644	      2.27509822	      9.87349594	    -38.02313369	     20.67127843	     10.19159774	      0.00000000	    -31.24724765	     -1.11189282	    -11.75465369
      4.46500000	     10.87040151	      7.81855542	     17.74467992	     -0.07105812	      0.73699745	     -0.24161956	     13.80703384	     -8.66058592	     -8.12702136	    -21.50249688	     13.33938490	      6.41127400	      0.00000000	    -20.83783379	      1.77007297	      9.66871355	    -40.45314956	     18.97502003	      9.33940412	      0.00000000	    -31.06655287	     -0.56142001	    -11.33063012
      4.47000000	     10.94227432	      7.14173655	     17.68886840	     -0.06364694	      0.73716809	     -0.24103999	     13.77727318	     -7.65832174	     -7.69668805	    -22.31912202	     13.46077370	      5.78540642	      0.00000000	    -19.71979442	      1.24462734	      9.49151249	    -42.88580530	     17.28363458	      8.45630927	      0.00000000	    -30.88174764	      0.02924390	    -10.93682194
      4.47500000	     10.99685617	      6.45021422	     17.67254416	     -0.05633655	      0.73735338	     -0.24051032	     13.71708931	     -6.65702219	     -7.37549648	    -23.04257453	     13.70052245	      5.26040766	      0.00000000	    -18.52562682	      0.70673962	      9.35865578	    -45.29456006	     15.64649203	      7.54712204	      0.00000000	    -30.69873557	      0.65639273	    -10.57850177
      4.48000000	     11.03424590	      5.75099089	     17.69505914	     -0.04913310	      0.73755207	     -0.24003324	     13.62188133	     -5.66444868	     -7.15951443	    -23.65980294	     14.04483107	      4.83037426	      0.00000000	    -17.25974945	      0.16487140	      9.27425436	    -47.66543493	     14.12008943	      6.62951085	      0.00000000	    -30.51776369	      1.31129001	    -10.25279994
      4.48500000	     11.05741708	      5.05148199	     17.75741882	     -0.04204141	      0.73777067	     -0.23961755	     13.48651871	     -4.68888042	     -7.04555795	    -24.16596022	     14.47531953	      4.48487186	      0.00000000	    -15.93471494	     -0.37042401	      9.25146941	    -49.97596289	     12.75265595	      5.71828431	      0.00000000	    -30.34587450	      1.98946933	     -9.95876060
      4.49000000	     11.06237333	      4.35631680	     17.85096590	     -0.03505900	      0.73800165	     -0.23925714	     13.31752063	     -3.73354828	     -7.00892123	    -24.56061447	     14.97472424	      4.21116222	      0.00000000	    -14.55167418	     -0.88871030	      9.28324335	    -52.21382301	     11.59399851	      4.83680169	      0.00000000	    -30.17810492	      2.67979173	     -9.69235415
      4.49500000	     11.16638802	      3.67171267	     17.91721535	     -0.02813835	      0.73836706	     -0.23896931	     12.98107286	     -2.77079540	     -7.04446794	    -24.81700080	     15.54717979	      4.16187166	      0.00000000	    -13.27721558	     -1.40028694	      9.31700809	    -54.31137567	     10.68839549	      3.93558129	      0.00000000	    -30.13871991	      3.40073927	     -9.37301184
      4.50000000	     11.04056074	      3.01319980	     18.13114002	     -0.02142330	      0.73854500	     -0.23872337	     12.84863175	     -1.91229913	     -7.14616689	    -25.01187197	     16.10651871	      3.83622670	      0.00000000	    -11.66439697	     -1.82741391	      9.53566706	    -56.41520052	     10.00719692	      3.22946820	      0.00000000	    -29.88654916	      4.06997131	     -9.23147407
      4.50500000	     11.11606005	      2.37804465	     18.22696968	     -0.01470765	      0.73896919	     -0.23853709	     12.43923515	     -1.01762094	     -7.24350212	    -25.05465206	     16.70472249	      3.84298329	      0.00000000	    -10.32053117	     -2.23990703	      9.66149525	    -58.30446900	      9.61468430	      2.43748928	      0.00000000	    -29.87331910	      4.75991425	     -8.92663635
      4.51000000	     10.99647391	      1.76763915	     18.48036186	     -0.00817864	      0.73922705	     -0.23840339	     12.20137703	     -0.22127712	     -7.43735452	    -25.04534459	     17.30230001	      3.61662659	      0.00000000	     -8.67952974	     -2.57679616	      9.97759315	    -60.17794742	      9.46963969	      1.92960684	      0.00000000	    -29.67489365	      5.41396706	     -8.80633177
      4.51500000	     10.99270537	      1.19440078	     18.64484665	     -0.00167078	      0.73965365	     -0.23832020	     11.79036518	      0.57306285	     -7.61669225	    -24.92360981	     17.88147125	      3.55178538	      0.00000000	     -7.20352663	     -2.86119498	     10.23116775	    -61.86114478	      9.55889813	      1.38734743	      0.00000000	    -29.62966489	      6.04675749	     -8.53350260
      4.52000000	     11.01774407	      0.65773832	     18.78998429	      0.00477698	      0.74016339	     -0.23825889	     11.29713718	      1.34958591	     -7.71948133	    -24.69991548	     18.42441329	      3.57005322	      0.00000000	     -5.76635987	     -3.09316689	     10.47406805	    -63.39603043	      9.87560178	      0.88648137	      0.00000000	    -29.64045675	      6.65516704	     -8.29266802
      4.52500000	     10.93928079	      0.16181809	     19.02413621	      0.01112351	      0.74059007	     -0.23824334	     10.88187724	      2.04628143	     -7.88838616	    -24.43324386	     18.98558577	      3.39331083	      0.00000000	     -4.18513383	     -3.23849896	     10.83799849	    -64.84084070	     10.42703604	      0.67921642	      0.00000000	    -29.55673512	      7.21271415	     -8.11474417
